ply
format ascii 1.0
comment PCL generated
element vertex 253
property float x
property float y
property float z
element camera 1
property float view_px
property float view_py
property float view_pz
property float x_axisx
property float x_axisy
property float x_axisz
property float y_axisx
property float y_axisy
property float y_axisz
property float z_axisx
property float z_axisy
property float z_axisz
property float focal
property float scalex
property float scaley
property float centerx
property float centery
property int viewportx
property int viewporty
property float k1
property float k2
end_header
0.036529668 -0.11070136 0
0.069455087 -0.10702445 0
0.11209518 -0.1022101 0
0.16354714 -0.096689299 0
-0.055848256 -0.10650524 0
-0.0088662151 -0.10105054 0
0.013980527 -0.098371141 0
0.080210418 -0.091478303 0
0.1015442 -0.089064263 0
0.17367242 -0.081945114 0
-0.15580031 -0.10286168 0
-0.09249796 -0.095702536 0
-0.068076685 -0.092772231 0
0.0024866629 -0.084966376 0
0.013867472 -0.083660141 0
0.080153733 -0.07682512 0
0.10153639 -0.074949652 0
0.16362599 -0.068603262 0
-0.15565832 -0.08819899 0
-0.092307448 -0.081340782 0
-0.080037624 -0.07983996 0
-0.0087166075 -0.072675481 0
0.014167286 -0.070230693 0
0.15385883 -0.056746479 0
-0.15990594 -0.075137675 0
-0.096358493 -0.06852679 0
-0.059729643 -0.065006398 0
-0.012525221 -0.060054053 0
0.10961714 -0.020979403 0
0.15121618 -0.017692663 0
-0.14586963 -0.028110407 0
-0.10766447 -0.024864586 0
-0.070624173 -0.021565851 0
0.011823501 -0.015076183 0
0.067591093 -0.010696827 0
0.099932045 -0.0081628263 0
-0.16458464 -0.016618885 0
-0.1006387 -0.011193682 0
-0.075956762 -0.0091454526 0
-0.016319407 -0.0038887435 0
-0.0046612136 -0.0043101613 0
0.0068314709 -0.0033619336 0
0.073722832 0.0016869376 0
0.095277324 0.0032623024 0
-0.1637294 -0.0013848152 0
-0.099754453 0.0034197888 0
-0.08734253 0.0042661978 0
-0.015406263 0.0099140983 0
0.0077071595 0.011379051 0
0.074651644 0.015401978 0
0.096204959 0.016980097 0
-0.1502322 0.015415638 0
-0.099235162 0.01827272 0
-0.07453762 0.020046104 0
-0.026589973 0.023824055 0
0.0082694804 0.025753096 0
0.064323135 0.028935228 0
0.10748092 0.031419195 0
0.13894111 0.03335749 0
-0.14227134 0.059000354 0
-0.1165995 0.059508163 0
-0.079154655 0.061602972 0
-0.030911442 0.06424769 0
0.0041064029 0.065991379 0
0.060445316 0.068272002 0
0.093113795 0.069502912 0
0.14580593 0.071990341 0
-0.10310665 0.075008273 0
-0.090638429 0.075810991 0
-0.018247908 0.079362579 0
0.0049870973 0.080496348 0
0.061328612 0.082742587 0
0.083200961 0.083541535 0
0.15703249 0.086165756 0
-0.10185592 0.089642175 0
-0.089394629 0.090393148 0
-0.016983572 0.093209505 0
-0.0052889171 0.093429536 0
0.062570423 0.096375316 0
0.084447965 0.097010672 0
0.14797592 0.099019036 0
-0.15996307 0.10117664 0
-0.10840146 0.10217353 0
-0.083433852 0.10325681 0
-0.0230674 0.10492377 0
0.00028404454 0.10577543 0
0.056847606 0.1082956 0
0.089675561 0.10882189 0
0.14261311 0.11051461 0
0.036521677 -0.11050361 0
0.069453344 -0.10697946 0
0.11209354 -0.10216451 0
0.16355066 -0.096805818 0
-0.055860505 -0.10631437 0
-0.008862366 -0.10111596 0
0.013981739 -0.09839303 0
0.080199614 -0.091272987 0
0.10155499 -0.089271821 0
0.17365751 -0.081615068 0
-0.15580919 -0.10276242 0
-0.092506766 -0.095598966 0
-0.068088599 -0.092627175 0
0.002496426 -0.085095458 0
0.013882006 -0.083854012 0
0.080141544 -0.076649435 0
0.10152281 -0.074747287 0
0.16361749 -0.068467781 0
-0.15567967 -0.087999113 0
-0.092307448 -0.081340782 0
-0.080037624 -0.07983996 0
-0.0087269731 -0.072566383 0
0.15385339 -0.05667761 0
-0.15991382 -0.074993074 0
-0.09635523 -0.068591252 0
-0.059733607 -0.064918295 0
-0.012512613 -0.060344987 0
0.10962488 -0.021095339 0
0.15124747 -0.018189913 0
-0.14586529 -0.028152021 0
-0.10763848 -0.025121139 0
-0.070611626 -0.021694519 0
0.011809414 -0.014919955 0
0.067638636 -0.01125414 0
-0.16459277 -0.016470253 0
-0.10062013 -0.011565925 0
-0.075950444 -0.0092766397 0
0.0068053738 -0.0027444612 0
0.073728263 0.0015445778 0
0.15793979 0.0071841981 0
-0.16371548 -0.0015794262 0
-0.099767514 0.0036177638 0
-0.087371334 0.0047070468 0
-0.015406263 0.0099140983 0
0.007688757 0.011694646 0
0.074643962 0.015545233 0
0.096202642 0.01702787 0
0.15887801 0.020842463 0
-0.1502412 0.015518263 0
-0.099260293 0.018576212 0
-0.074571118 0.020458408 0
-0.026564645 0.023496792 0
0.0082597304 0.025886418 0
0.06431523 0.029050721 0
0.1074457 0.031954855 0
0.13892329 0.033640075 0
-0.142261 0.058850851 0
-0.1165995 0.059508163 0
-0.079144269 0.061443936 0
-0.030870516 0.063576356 0
0.0041335984 0.065526471 0
0.060457055 0.068055823 0
0.093100116 0.069770008 0
0.14580007 0.07211294 0
-0.10311592 0.07511986 0
-0.090636626 0.075788796 0
-0.018197937 0.078702711 0
0.005034232 0.079859577 0
0.061380334 0.081994615 0
0.083232611 0.083072275 0
0.15702809 0.08623755 0
-0.10188461 0.089931399 0
-0.089396775 0.090415344 0
-0.016960461 0.092957437 0
-0.0052952133 0.093498766 0
0.14797765 0.098995037 0
-0.10841614 0.10246612 0
-0.083439335 0.10336949 0
-0.02307668 0.10513451 0
0.00027902657 0.10589315 0
0.056877814 0.10751691 0
0.089687012 0.10850772 0
0.036518257 -0.11041646 0
0.069450893 -0.10691214 0
0.11209046 -0.10207368 0
0.16354215 -0.096527532 0
-0.055873808 -0.1061049 0
-0.0088675339 -0.10102874 0
0.013980527 -0.098371141 0
0.080200732 -0.091295689 0
0.10153492 -0.088881843 0
0.17366159 -0.081708737 0
-0.15580747 -0.10278226 0
-0.092525676 -0.095373414 0
-0.068096995 -0.092524335 0
0.0025145768 -0.085334696 0
0.013888491 -0.083940946 0
0.080165967 -0.077002726 0
0.10152126 -0.074724942 0
0.16361749 -0.068467781 0
-0.15568405 -0.087959491 0
-0.092326365 -0.081153788 0
-0.080037624 -0.07983996 0
-0.0086939335 -0.072918124 0
0.1538679 -0.056861993 0
-0.1599105 -0.075054899 0
-0.096362799 -0.068441205 0
-0.059752032 -0.064527445 0
-0.012515672 -0.060277436 0
0.10963415 -0.021235555 0
0.15122944 -0.017904021 0
-0.14588276 -0.027986236 0
-0.10766664 -0.024843398 0
-0.070620045 -0.021608623 0
-0.022885082 -0.017422065 0
0.011839845 -0.015256453 0
0.067587093 -0.01065119 0
0.099947169 -0.0083476305 0
-0.16460291 -0.016281027 0
-0.10062774 -0.011411656 0
-0.07595779 -0.009123683 0
-0.0046601444 -0.0043334272 0
0.0068236897 -0.0031766528 0
0.073717616 0.0018281408 0
0.095273793 0.0033569699 0
0.15792814 0.0075506642 0
-0.16374022 -0.0012349775 0
-0.099755839 0.0034419002 0
-0.087355614 0.0044659674 0
-0.015406263 0.0099140983 0
0.0077058142 0.011401775 0
0.074632756 0.015757978 0
0.096189216 0.017288253 0
-0.099265806 0.018640539 0
-0.074564129 0.020372454 0
-0.02659489 0.023888767 0
0.0082679344 0.025775403 0
0.064318359 0.029004613 0
0.1074518 0.031862896 0
0.13891877 0.033710003 0
-0.14229336 0.05931643 0
-0.11658568 0.059304301 0
-0.079138465 0.061352409 0
-0.030893229 0.063949913 0
0.0041172658 0.065806895 0
0.060437724 0.068414636 0
0.093096361 0.069842167 0
0.1458153 0.071792424 0
-0.10310295 0.074963421 0
-0.090627484 0.075677335 0
-0.01821528 0.078933075 0
0.083232611 0.083072275 0
0.15703982 0.086045422 0
-0.10183382 0.089416407 0
-0.089368328 0.090124622 0
-0.0169542 0.092888057 0
-0.0053117825 0.093682103 0
0.14795941 0.099233598 0
-0.10840382 0.10221886 0
-0.0834371 0.10332451 0
-0.02307979 0.10520422 0
0.00027696555 0.10594003 0
0.05686662 0.10780407 0
0.089671232 0.10894126 0
0 0 0 1 0 0 0 1 0 0 0 1 0 0 0 0 0 253 1 0 0
