ply
format ascii 1.0
comment PCL generated
element vertex 251
property float x
property float y
property float z
element camera 1
property float view_px
property float view_py
property float view_pz
property float x_axisx
property float x_axisy
property float x_axisz
property float y_axisx
property float y_axisy
property float y_axisz
property float z_axisx
property float z_axisy
property float z_axisz
property float focal
property float scalex
property float scaley
property float centerx
property float centery
property int viewportx
property int viewporty
property float k1
property float k2
end_header
-0.15365848 -0.10363203 0
-0.068685338 -0.10786588 0
-0.031152589 -0.10961203 0
0.024935683 -0.1131715 0
0.043636732 -0.11406703 0
-0.1616202 -0.088553898 0
-0.095303372 -0.091518193 0
0.007912227 -0.097292773 0
0.073347449 -0.10137632 0
0.092034712 -0.10284343 0
0.14822216 -0.10699254 0
-0.1693629 -0.073821284 0
-0.10291114 -0.076658055 0
-0.008937479 -0.082302883 0
0.0098045608 -0.083003148 0
0.075264081 -0.087439194 0
0.10333443 -0.089390732 0
0.15958059 -0.093871035 0
-0.16147417 -0.061226495 0
-0.10448821 -0.063523985 0
-0.076190054 -0.065141238 0
-0.019830076 -0.068580091 0
0.017663967 -0.070620343 0
0.1581669 -0.080801256 0
0.14137878 -0.064983822 0
-0.15548265 -0.01728932 0
-0.1079094 -0.019509131 0
-0.070091382 -0.021846449 0
-0.022997629 -0.024338355 0
0.052072063 -0.02914143 0
-0.16778921 -0.0040071113 0
-0.10111052 -0.0072272643 0
-0.08217115 -0.0081636272 0
-0.016164983 -0.011659517 0
0.011942723 -0.014315014 0
0.068267763 -0.01773897 0
0.096394047 -0.020022796 0
0.1528627 -0.023548028 0
-0.16545472 0.01028997 0
-0.079794116 0.006166358 0
-0.0043927161 0.0014684277 0
0.080111668 -0.0043484611 0
0.089497179 -0.0050807097 0
0.16482128 -0.010057613 0
-0.15380839 0.024133177 0
-0.10611591 0.022276763 0
-0.06822896 0.019844335 0
-0.011631127 0.016588109 0
0.01655281 0.014229771 0
0.072956569 0.010961328 0
0.10112666 0.0085907718 0
0.15767115 0.0051414338 0
0.1127564 0.022037109 0
0.15047199 0.019717399 0
-0.10491122 0.063301496 0
-0.057457067 0.060619202 0
-0.019668911 0.058146678 0
0.036868613 0.054482501 0
0.055698745 0.05327196 0
-0.1503116 0.080392681 0
-0.093022302 0.077140041 0
-0.074023709 0.076036505 0
-0.0078056869 0.071980834 0
0.011052169 0.070665188 0
0.077020951 0.066568419 0
0.10528389 0.064462975 0
0.16195987 0.060666401 0
-0.16692041 0.095740974 0
-0.090398595 0.091100931 0
-0.0051401393 0.08590059 0
0.013727715 0.084529102 0
0.079732396 0.08035472 0
0.098580696 0.078841694 0
-0.14167197 0.10683706 0
-0.093904346 0.10389831 0
-0.008560976 0.098712996 0
0.076353751 0.092969485 0
0.060002755 0.10916081 0
0.10716106 0.10531095 0
-0.15365987 -0.10365343 0
-0.11572638 -0.10473735 0
-0.068680912 -0.10780076 0
-0.031163083 -0.10976211 0
0.024951236 -0.11295774 0
0.043639813 -0.11402495 0
-0.16162342 -0.088618591 0
-0.095276251 -0.091010056 0
-0.076445013 -0.092089899 0
0.0079284133 -0.097015664 0
0.073333062 -0.10161016 0
0.092022695 -0.10303576 0
0.14821941 -0.10703453 0
-0.16936685 -0.073928431 0
-0.074627839 -0.07821577 0
-0.0089146271 -0.08178734 0
0.0098169325 -0.082729511 0
0.075250588 -0.087718107 0
0.10331851 -0.089711159 0
0.15958944 -0.093701839 0
-0.16145569 -0.060986258 0
-0.10451243 -0.06382855 0
-0.076200664 -0.065272376 0
-0.019800792 -0.068229824 0
0.06446778 -0.073530518 0
0.10188651 -0.076448597 0
0.15819675 -0.080478288 0
0.14138736 -0.064873822 0
-0.15548265 -0.01728932 0
-0.10790853 -0.019487564 0
-0.070076816 -0.021497944 0
-0.022998573 -0.024360076 0
0.033300214 -0.028307682 0
0.052079283 -0.028990095 0
-0.16778921 -0.0040071113 0
-0.10111929 -0.007337953 0
-0.082176425 -0.0082296114 0
-0.016208723 -0.012184329 0
0.011963713 -0.014067249 0
0.068277448 -0.017627975 0
0.096392021 -0.020045465 0
0.15283455 -0.023855502 0
-0.16544618 0.010425188 0
-0.098725237 0.0073647397 0
-0.079821289 0.0057621989 0
-0.013773602 0.0023820479 0
0.16481429 -0.010146154 0
-0.15379357 0.02442503 0
-0.068247437 0.019507842 0
-0.011651681 0.016231595 0
0.016547408 0.014138351 0
0.072948352 0.010827935 0
0.10112522 0.0085681062 0
0.15766828 0.005097955 0
0.11275872 0.022082416 0
0.15045787 0.019449973 0
-0.15265732 0.066067107 0
-0.10488884 0.063641742 0
-0.057463273 0.060527842 0
-0.01967697 0.058031384 0
0.036865268 0.054436415 0
0.0557038 0.053340673 0
-0.1502922 0.080774009 0
-0.093007825 0.077409938 0
-0.074019998 0.076104291 0
-0.0078109335 0.07189016 0
0.011046804 0.070574 0
0.077015407 0.066478767 0
0.10526375 0.064144589 0
0.16195844 0.060644206 0
-0.16690034 0.096276157 0
-0.090394802 0.091192484 0
-0.005137003 0.085969023 0
0.013727715 0.084529102 0
0.079735756 0.080422871 0
0.098586492 0.078956455 0
0.16475292 0.074788265 0
-0.14166151 0.10697386 0
-0.093922637 0.10366639 0
-0.065398432 0.10196288 0
-0.0085628601 0.098690093 0
0.019735202 0.096494339 0
0.076377593 0.093243852 0
0.10465764 0.090989038 0
0.031630926 0.11029497 0
0.10717852 0.1055411 0
0.15451819 0.10279708 0
-0.15365301 -0.10354679 0
-0.068683863 -0.10784414 0
-0.031152589 -0.10961203 0
0.024918353 -0.11340985 0
0.043627378 -0.114194 0
-0.16160838 -0.08831884 0
-0.09529084 -0.091283381 0
-0.020127153 -0.095023498 0
0.007912227 -0.097292773 0
0.073334381 -0.10158878 0
0.09202674 -0.10297142 0
-0.1693629 -0.073821284 0
-0.074642889 -0.078582488 0
-0.008934563 -0.082237586 0
0.0098093385 -0.082897343 0
0.075249545 -0.087739781 0
0.10332065 -0.089668073 0
0.15958391 -0.093807384 0
-0.16145739 -0.061008003 0
-0.10452296 -0.063960813 0
-0.076204196 -0.065316297 0
-0.019800792 -0.068229824 0
0.10186294 -0.076711722 0
0.15818088 -0.080649778 0
0.11321521 -0.062989727 0
0.14139076 -0.064830028 0
-0.15548672 -0.017398493 0
-0.10791027 -0.019530781 0
-0.070087694 -0.021758642 0
-0.02300051 -0.024403637 0
0.052063737 -0.029316077 0
-0.16780624 -0.0042307293 0
-0.10107598 -0.0067914729 0
-0.082192436 -0.0084291641 0
-0.016181232 -0.01185443 0
0.068283245 -0.017561754 0
0.096421935 -0.01970854 0
0.15285873 -0.023591634 0
-0.16545472 0.01028997 0
-0.079800099 0.0060773622 0
-0.013756645 0.002623115 0
-0.0044071404 0.0012647496 0
0.080128655 -0.0041221636 0
0.089517713 -0.0048084152 0
0.16482304 -0.010035592 0
-0.1538004 0.024290934 0
-0.068232626 0.019777579 0
-0.011643919 0.016366137 0
0.072962046 0.011049677 0
0.1011295 0.0086360164 0
0.15767258 0.0051631317 0
0.11275179 0.021946074 0
0.15046848 0.019650962 0
-0.15266748 0.065907128 0
-0.10490372 0.063415647 0
-0.057477385 0.060320526 0
-0.019651368 0.058397692 0
0.03689016 0.054779187 0
0.055713851 0.053477325 0
-0.093016237 0.077253021 0
-0.074023709 0.076036505 0
-0.0077914228 0.072227761 0
0.011068049 0.070936032 0
0.077019565 0.066546053 0
0.10528529 0.064485505 0
0.16197152 0.060842894 0
-0.16691615 0.09585385 0
-0.090392917 0.091238081 0
-0.071399853 0.089795247 0
-0.0051328875 0.086059876 0
0.013726651 0.084506035 0
0.079732396 0.08035472 0
0.098583028 0.078887694 0
0.16476004 0.074920774 0
-0.14168431 0.10667613 0
-0.093898907 0.10396732 0
-0.065374359 0.10226329 0
-0.008572395 0.09857513 0
0.076369688 0.093152866 0
0.10463092 0.09068647 0
0.1614375 0.087568507 0
0.031664193 0.11075579 0
0.060007676 0.10922778 0
0.1071681 0.10540338 0
0.1545008 0.10257451 0
0 0 0 1 0 0 0 1 0 0 0 1 0 0 0 0 0 251 1 0 0
