ply
format ascii 1.0
comment PCL generated
element vertex 267
property float x
property float y
property float z
element camera 1
property float view_px
property float view_py
property float view_pz
property float x_axisx
property float x_axisy
property float x_axisz
property float y_axisx
property float y_axisy
property float y_axisz
property float z_axisx
property float z_axisy
property float z_axisz
property float focal
property float scalex
property float scaley
property float centerx
property float centery
property int viewportx
property int viewporty
property float k1
property float k2
end_header
-0.068373382 -0.10879896 0
-0.028936578 -0.10941164 0
0.019468706 -0.11156573 0
0.057674266 -0.11228446 0
0.095348082 -0.11421216 0
0.15114948 -0.11659018 0
-0.16854225 -0.091539346 0
-0.096957259 -0.093391925 0
-0.076908648 -0.093869403 0
0.01136405 -0.096349902 0
0.059208721 -0.097797267 0
0.15278475 -0.10203815 0
-0.16694055 -0.077385761 0
-0.095299698 -0.079277568 0
-0.085246183 -0.079488643 0
-0.016000651 -0.080926076 0
0.0034406311 -0.08163327 0
0.070440978 -0.08470872 0
-0.15860836 -0.064483047 0
-0.10733813 -0.065591931 0
-0.077124752 -0.066389278 0
-0.017801955 -0.06821277 0
0.011325046 -0.069698378 0
0.068767868 -0.071923733 0
0.15304391 -0.076119266 0
-0.1530892 -0.019710932 0
-0.11191729 -0.021223335 0
-0.061475269 -0.023134988 0
-0.021858215 -0.024641579 0
0.017162662 -0.026407778 0
0.065190829 -0.028846707 0
0.10308432 -0.030903637 0
0.1498867 -0.033348668 0
-0.16674531 -0.0060940664 0
-0.09468469 -0.00878888 0
-0.074537858 -0.010044288 0
-0.014988138 -0.01258494 0
0.0045787301 -0.013231338 0
0.071934231 -0.016881272 0
0.090919629 -0.017840408 0
0.15656719 -0.021355405 0
-0.16452853 0.0085882824 0
-0.092443056 0.0055944202 0
-0.082327157 0.0052016377 0
-0.012680459 0.0020152936 0
0.006869155 0.0009113503 0
0.093247861 -0.0040834914 0
0.15894172 -0.0075941188 0
-0.16260013 0.023354068 0
-0.10063574 0.020689934 0
-0.07028158 0.019173617 0
0.0088896155 0.0150768 0
0.066789486 0.011719003 0
0.095334664 0.010010341 0
0.15173428 0.0066501684 0
-0.15182026 0.06528876 0
-0.11037587 0.063055329 0
-0.059605509 0.06027266 0
0.019533843 0.055759802 0
0.058264289 0.053429812 0
0.11544022 0.049401321 0
0.14371979 0.047995836 0
-0.16006234 0.080943137 0
-0.097873166 0.077153936 0
-0.07751295 0.076016627 0
-0.0075725229 0.071715452 0
0.012070247 0.070510268 0
0.07022088 0.067297593 0
0.098858625 0.065051273 0
0.1648258 0.060633399 0
-0.16808373 0.096380673 0
-0.095338225 0.091471322 0
-0.074983269 0.089881219 0
-0.0050119623 0.085689984 0
0.0048268591 0.084946685 0
0.072805718 0.08107648 0
0.16744699 0.073885798 0
-0.16170126 0.10865999 0
-0.099339493 0.10447479 0
-0.068782032 0.10251765 0
-0.0087833647 0.098672792 0
0.078783259 0.092631072 0
0.097895585 0.091160327 0
0.16401656 0.086438373 0
0.032796923 0.11048453 0
0.052232772 0.10915618 0
0.1097962 0.1047933 0
0.14768457 0.10255432 0
-0.068368837 -0.10871365 0
-0.028942538 -0.10951743 0
0.019491188 -0.11119273 0
0.057675667 -0.11226293 0
0.095340706 -0.11432341 0
0.15114948 -0.11659018 0
-0.16854092 -0.091498733 0
-0.096951872 -0.093243413 0
-0.07690046 -0.093656667 0
-0.01770898 -0.094997525 0
0.011382554 -0.095943883 0
0.059218146 -0.097605996 0
0.15278958 -0.10195188 0
-0.1669343 -0.077016808 0
-0.095295757 -0.079106569 0
-0.085239127 -0.079190798 0
-0.01601257 -0.081328645 0
0.0034273951 -0.082059629 0
0.07044176 -0.084686927 0
0.098715663 -0.086102456 0
-0.15858144 -0.064038068 0
-0.10731075 -0.065166913 0
-0.077130467 -0.066475771 0
-0.01781898 -0.068452634 0
0.011346066 -0.069411211 0
0.068750553 -0.072147496 0
0.10649269 -0.073469296 0
0.15306638 -0.075851485 0
-0.15308966 -0.019732159 0
-0.11191974 -0.021331415 0
-0.061473034 -0.023048148 0
-0.021856314 -0.024576487 0
0.017168354 -0.026233617 0
0.065190017 -0.028868886 0
0.10308344 -0.030925993 0
0.14987698 -0.033572257 0
-0.16675167 -0.006201243 0
-0.094690226 -0.0088758767 0
-0.07453043 -0.0099330032 0
-0.014988138 -0.01258494 0
0.0045674429 -0.013387319 0
0.071946524 -0.016723018 0
0.090916023 -0.017885823 0
0.15655966 -0.021445531 0
-0.16453344 0.0084794126 0
-0.092452168 0.0054167509 0
-0.082337536 0.0050017741 0
-0.012677965 0.0020598003 0
0.0068797674 0.0010905371 0
0.074283585 -0.0025985905 0
0.093269043 -0.003761112 0
0.15896566 -0.0072547742 0
-0.16260013 0.023354068 0
-0.10063975 0.02058059 0
-0.070285909 0.019062996 0
0.0089038052 0.015388661 0
0.066813305 0.012192849 0
0.095356122 0.010419778 0
-0.15181822 0.065333523 0
-0.11037147 0.063145608 0
-0.059606716 0.060249869 0
-0.01974681 0.05785672 0
0.019529739 0.05569103 0
0.058267094 0.053475566 0
0.11544809 0.049518373 0
0.14368929 0.047555074 0
-0.16006932 0.080723837 0
-0.097876444 0.077064112 0
-0.077516451 0.075926736 0
-0.0075775506 0.071601264 0
0.012065038 0.070395909 0
0.070214145 0.0671634 0
0.098860972 0.06509681 0
0.16481784 0.060496274 0
-0.16808918 0.096076682 0
-0.0050105248 0.085735917 0
0.0048321001 0.085108086 0
0.072808258 0.081143871 0
0.10147107 0.079012394 0
0.16745754 0.074118637 0
-0.1617249 0.10825788 0
-0.068786539 0.10244908 0
-0.0087817768 0.098695636 0
0.078770712 0.092468031 0
0.097882703 0.090995826 0
0.16403592 0.08667136 0
0.032778848 0.11018468 0
0.052243989 0.10933806 0
0.10978686 0.1046533 0
0.14766257 0.10223526 0
-0.068369932 -0.10873491 0
-0.028955854 -0.10975257 0
0.019493788 -0.11114936 0
0.0576565 -0.11256639 0
0.095339209 -0.11434573 0
0.15115412 -0.11652404 0
-0.16854478 -0.091620825 0
-0.096951872 -0.093243413 0
-0.076901272 -0.093677796 0
-0.017715346 -0.095145196 0
0.011340999 -0.096854948 0
0.096908458 -0.1000526 0
-0.16694199 -0.077468917 0
-0.095301628 -0.079363704 0
-0.085247733 -0.079553187 0
-0.016009403 -0.081221759 0
0.003428061 -0.082038052 0
0.070438586 -0.084774338 0
0.098728478 -0.085774451 0
0.14535636 -0.088036947 0
-0.15861228 -0.064547591 0
-0.10733949 -0.065613471 0
-0.07713636 -0.066562712 0
-0.017811166 -0.068343177 0
0.011344505 -0.069433153 0
0.068766184 -0.071945995 0
0.10651026 -0.073250249 0
0.15304391 -0.076119266 0
-0.15308537 -0.019499909 0
-0.11191313 -0.021030448 0
-0.061476968 -0.023200367 0
-0.021864634 -0.024860276 0
0.017163372 -0.026385907 0
0.065191619 -0.028824542 0
0.10308965 -0.03077003 0
0.14987499 -0.033617325 0
-0.16675426 -0.0062442962 0
-0.094701633 -0.0090511739 0
-0.074540809 -0.010088999 0
-0.01498024 -0.012472961 0
0.0045593805 -0.013499618 0
0.071930707 -0.016926778 0
0.09092845 -0.017727397 0
0.15654437 -0.021627162 0
-0.16452953 0.0085665528 0
-0.082343318 0.0048897676 0
-0.012689453 0.0018586281 0
0.0068585863 0.00073025288 0
0.074260153 -0.0029647157 0
0.09325093 -0.0040370524 0
0.15893522 -0.0076857572 0
-0.16259606 0.023483135 0
-0.10063258 0.020776924 0
-0.07028158 0.019173617 0
-0.020516317 0.016635612 0
0.0088906307 0.015099267 0
0.066791825 0.011764698 0
0.095360838 0.01050945 0
0.15176271 0.0071493071 0
-0.15180282 0.06566561 0
-0.11037587 0.063055329 0
-0.05960308 0.060318157 0
0.058242612 0.053082887 0
0.14369743 0.047672134 0
-0.16005537 0.081159741 0
-0.097873166 0.077153936 0
-0.077508613 0.076128311 0
-0.0075765257 0.07162416 0
0.012060814 0.070303895 0
0.098850183 0.064890996 0
0.16483627 0.060814552 0
-0.16808644 0.096229345 0
-0.095336668 0.091538839 0
-0.074969314 0.09042608 0
-0.0050111879 0.085712962 0
0.0048321001 0.085108086 0
0.16746067 0.074187875 0
-0.16169739 0.10872611 0
-0.099322394 0.10474511 0
-0.068783514 0.10249481 0
-0.008804393 0.098372757 0
0.020716306 0.096852012 0
0.078758083 0.092303455 0
0.097890072 0.091090024 0
0.16403788 0.086694486 0
0.032785874 0.1103006 0
0.052221354 0.10897242 0
0.10979767 0.10481653 0
0.14768773 0.10259942 0
0 0 0 1 0 0 0 1 0 0 0 1 0 0 0 0 0 267 1 0 0
