ply
format ascii 1.0
comment PCL generated
element vertex 100
property float x
property float y
property float z
property float intensity
element camera 1
property float view_px
property float view_py
property float view_pz
property float x_axisx
property float x_axisy
property float x_axisz
property float y_axisx
property float y_axisy
property float y_axisz
property float z_axisx
property float z_axisy
property float z_axisz
property float focal
property float scalex
property float scaley
property float centerx
property float centery
property int viewportx
property int viewporty
property float k1
property float k2
end_header
0.26538402 0.37723097 1.4659761 0
0.25932577 0.36239323 1.4659761 0
0.23502287 0.31073627 1.4659761 0
0.21818103 0.27588847 1.4659761 0
0.33251086 0.55601883 1.4659761 0
0.30882356 0.50323689 1.4659761 0
0.29488903 0.47408831 1.4659761 0
0.28463316 0.44359097 1.4659761 0
0.26722911 0.416798 1.4659761 0
0.2586495 0.39876512 1.4659761 0
0.23666793 0.34985915 1.4659761 0
0.22347629 0.32282168 1.4659761 0
0.19747671 0.26585382 1.4659761 0
0.32498679 0.56945992 1.4659761 0
0.29458761 0.50344306 1.4659761 0
0.28721109 0.48670477 1.4659761 0
0.25547266 0.42003354 1.4659761 0
0.25202093 0.41212633 1.4659761 0
0.22515473 0.35325837 1.4659761 0
0.21620953 0.33488932 1.4659761 0
0.18509752 0.2679714 1.4659761 0
0.30690005 0.56576228 1.4659761 0
0.28317818 0.51259553 1.4659761 0
0.27365401 0.49246418 1.4659761 0
0.24445909 0.42913511 1.4659761 0
0.23680681 0.41222912 1.4659761 0
0.21474509 0.36304468 1.4659761 0
0.20024931 0.33377701 1.4659761 0
0.17380106 0.27619261 1.4659761 0
0.28744262 0.55937254 1.4659761 0
0.27183908 0.52421772 1.4659761 0
0.2507205 0.47797489 1.4659761 0
0.21796332 0.40667319 1.4659761 0
0.20426461 0.37556082 1.4659761 0
0.17781049 0.32036406 1.4659761 0
0.16559178 0.29455286 1.4659761 0
0.25570369 0.59120035 1.4659761 0
0.23055767 0.53424025 1.4659761 0
0.21648368 0.50307846 1.4659761 0
0.19810462 0.46153712 1.4659761 0
0.18761125 0.4378286 1.4659761 0
0.16206279 0.38208005 1.4659761 0
0.1491518 0.35422909 1.4659761 0
0.12689731 0.30568466 1.4659761 0
0.23863366 0.58934397 1.4659761 0
0.21162854 0.52737248 1.4659761 0
0.20809925 0.51928818 1.4659761 0
0.18131837 0.4588241 1.4659761 0
0.17406172 0.44253409 1.4659761 0
0.14428008 0.37697935 1.4659761 0
0.13583124 0.35855061 1.4659761 0
0.1113421 0.30501673 1.4659761 0
0.22716682 0.59976715 1.4659761 0
0.19990844 0.5368225 1.4659761 0
0.1878109 0.50927287 1.4659761 0
0.16949472 0.4677352 1.4659761 0
0.16097894 0.44859242 1.4659761 0
0.13277856 0.3858034 1.4659761 0
0.1253176 0.36937955 1.4659761 0
0.098676026 0.31127751 1.4659761 0
0.21313748 0.60055399 1.4659761 0
0.19563463 0.55972928 1.4659761 0
0.18058002 0.52512074 1.4659761 0
0.16877592 0.49708748 1.4659761 0
0.1606454 0.47962022 1.4659761 0
0.14468518 0.44353607 1.4659761 0
0.12504825 0.39962208 1.4659761 0
0.11010242 0.36673516 1.4659761 0
0.08958748 0.3214516 1.4659761 0
0.098939508 0.55214226 1.4659761 0
0.084319979 0.51838201 1.4659761 0
0.064838916 0.47136977 1.4659761 0
0.049558818 0.43537673 1.4659761 0
0.029247195 0.38302338 1.4659761 0
0.011685878 0.34808522 1.4659761 0
0.15287617 0.64647287 1.4659761 0
0.1232788 0.57195175 1.4659761 0
0.11275193 0.54301304 1.4659761 0
0.09475264 0.50742215 1.4659761 0
0.082507133 0.47766709 1.4659761 0
0.0597018 0.42554915 1.4659761 0
0.050338984 0.39998919 1.4659761 0
0.025163472 0.34765911 1.4659761 0
0.16539827 0.63821989 1.4659761 0
0.13564897 0.56464756 1.4659761 0
0.13149399 0.5544821 1.4659761 0
0.10564449 0.49485546 1.4659761 0
0.097813219 0.47649056 1.4659761 0
0.071053624 0.41521442 1.4659761 0
0.057238996 0.37952197 1.4659761 0
0.037029743 0.33990979 1.4659761 0
0.17554766 0.62504518 1.4659761 0
0.15091482 0.56536704 1.4659761 0
0.14006418 0.54024208 1.4659761 0
0.1158762 0.48281538 1.4659761 0
0.10244638 0.45364672 1.4659761 0
0.081996441 0.40556937 1.4659761 0
0.065531492 0.36664563 1.4659761 0
0.058116972 0.35629779 1.4659761 0
0.048741966 0.33266842 1.4659761 0
0 0 0 1 0 0 0 1 0 0 0 1 0 0 0 0 0 100 1 0 0
