ply
format ascii 1.0
comment PCL generated
element vertex 98
property float x
property float y
property float z
property float intensity
element camera 1
property float view_px
property float view_py
property float view_pz
property float x_axisx
property float x_axisy
property float x_axisz
property float y_axisx
property float y_axisy
property float y_axisz
property float z_axisx
property float z_axisy
property float z_axisz
property float focal
property float scalex
property float scaley
property float centerx
property float centery
property int viewportx
property int viewporty
property float k1
property float k2
end_header
0.73172009 0.79934585 1.2104143 0
0.68602318 0.75117141 1.2104143 0
0.67193937 0.73624241 1.2104143 0
0.63267052 0.69490308 1.2104143 0
0.6195122 0.68101281 1.2104143 0
0.57745421 0.63708627 1.2104143 0
0.55454558 0.61317992 1.2104143 0
0.53021377 0.58750015 1.2104143 0
0.67359042 0.75663561 1.2104143 0
0.66459095 0.74706703 1.2104143 0
0.61586213 0.69532382 1.2104143 0
0.60997051 0.68905675 1.2104143 0
0.55405545 0.63008565 1.2104143 0
0.54282957 0.61822838 1.2104143 0
0.50257409 0.57589734 1.2104143 0
0.66398394 0.76749253 1.2104143 0
0.65896356 0.76209044 1.2104143 0
0.60747421 0.70677871 1.2104143 0
0.59611475 0.69465148 1.2104143 0
0.54451829 0.63940752 1.2104143 0
0.53372574 0.62797445 1.2104143 0
0.49506521 0.58719558 1.2104143 0
0.69108003 0.81861609 1.2104143 0
0.65741193 0.78156638 1.2104143 0
0.63603681 0.75834495 1.2104143 0
0.6387918 0.76199299 1.2104143 0
0.606354 0.72616011 1.2104143 0
0.58068085 0.69828987 1.2104143 0
0.54020333 0.65450734 1.2104143 0
0.51715761 0.62967533 1.2104143 0
0.48747322 0.5981375 1.2104143 0
0.62876046 0.81362194 1.2104143 0
0.61417246 0.79733437 1.2104143 0
0.58468628 0.7644521 1.2104143 0
0.55422568 0.73046124 1.2104143 0
0.51819879 0.68970388 1.2104143 0
0.49064931 0.65935963 1.2104143 0
0.47044227 0.63720483 1.2104143 0
0.64828849 0.85695273 1.2104143 0
0.61200148 0.81589836 1.2104143 0
0.60540354 0.80852634 1.2104143 0
0.56461346 0.76293737 1.2104143 0
0.5457772 0.74120343 1.2104143 0
0.49369216 0.68150884 1.2104143 0
0.48259616 0.66955733 1.2104143 0
0.44081765 0.62298858 1.2104143 0
0.64352417 0.87493259 1.2104143 0
0.60248899 0.8273958 1.2104143 0
0.58896083 0.81210667 1.2104143 0
0.53909647 0.75436908 1.2104143 0
0.53150403 0.74567699 1.2104143 0
0.48744002 0.69549775 1.2104143 0
0.46949238 0.67448664 1.2104143 0
0.43079403 0.63141179 1.2104143 0
0.62860566 0.87897855 1.2104143 0
0.59968317 0.8445071 1.2104143 0
0.57461554 0.81509209 1.2104143 0
0.5392217 0.77324867 1.2104143 0
0.52457523 0.75772107 1.2104143 0
0.48764518 0.71523213 1.2104143 0
0.4673304 0.69224405 1.2104143 0
0.44668519 0.67215109 1.2104143 0
0.42417765 0.64284706 1.2104143 0
0.45519349 0.70163625 1.2104143 0
0.42116868 0.65900779 1.2104143 0
0.44057167 0.80978477 1.2104143 0
0.41829237 0.78149664 1.2104143 0
0.38391507 0.73541731 1.2104143 0
0.36077559 0.71245152 1.2104143 0
0.50626862 0.86660302 1.2104143 0
0.47704467 0.83037949 1.2104143 0
0.46510363 0.8165772 1.2104143 0
0.41653401 0.75425291 1.2104143 0
0.402152 0.736341 1.2104143 0
0.35903805 0.68570811 1.2104143 0
0.56672055 0.92370534 1.2104143 0
0.56336564 0.9208914 1.2104143 0
0.53947371 0.88665682 1.2104143 0
0.53268039 0.87854838 1.2104143 0
0.48637968 0.82133919 1.2104143 0
0.48098147 0.81542128 1.2104143 0
0.4306725 0.75157511 1.2104143 0
0.41667342 0.73460722 1.2104143 0
0.38720894 0.7042771 1.2104143 0
0.55691803 0.88518262 1.2104143 0
0.54503834 0.86959499 1.2104143 0
0.49853864 0.8127588 1.2104143 0
0.48378366 0.7949115 1.2104143 0
0.44001591 0.742046 1.2104143 0
0.41995692 0.71839297 1.2104143 0
0.38828117 0.67900145 1.2104143 0
0.60419405 0.92009759 1.2104143 0
0.5840947 0.89836323 1.2104143 0
0.55531603 0.85874182 1.2104143 0
0.53215331 0.83072454 1.2104143 0
0.50284398 0.79564804 1.2104143 0
0.47448403 0.761962 1.2104143 0
0.46056384 0.74550152 1.2104143 0
0 0 0 1 0 0 0 1 0 0 0 1 0 0 0 0 0 98 1 0 0
