ply
format ascii 1.0
comment PCL generated
element vertex 96
property float x
property float y
property float z
property float intensity
element camera 1
property float view_px
property float view_py
property float view_pz
property float x_axisx
property float x_axisy
property float x_axisz
property float y_axisx
property float y_axisy
property float y_axisz
property float z_axisx
property float z_axisy
property float z_axisz
property float focal
property float scalex
property float scaley
property float centerx
property float centery
property int viewportx
property int viewporty
property float k1
property float k2
end_header
-0.022365838 0.030510306 1.5490391 0
-0.027493633 -0.0067623407 1.5490391 0
-0.032839119 -0.043999672 1.5490391 0
-0.039595224 -0.092020825 1.5490391 0
-0.013208427 0.20423104 1.5490391 0
-0.019624867 0.15605602 1.5490391 0
-0.023588218 0.12626241 1.5490391 0
-0.024401709 0.12193263 1.5490391 0
-0.03118024 0.070940107 1.5490391 0
-0.03503266 0.04272522 1.5490391 0
-0.042881861 -0.012497351 1.5490391 0
-0.055206619 -0.097949728 1.5490391 0
-0.025096625 0.21109028 1.5490391 0
-0.0326543 0.1543283 1.5490391 0
-0.035194643 0.13266999 1.5490391 0
-0.036505491 0.12849098 1.5490391 0
-0.044146731 0.069075376 1.5490391 0
-0.046661548 0.050101757 1.5490391 0
-0.056187525 -0.015225843 1.5490391 0
-0.058645017 -0.033771813 1.5490391 0
-0.068653382 -0.10113071 1.5490391 0
-0.039074168 0.21590374 1.5490391 0
-0.046636775 0.15895203 1.5490391 0
-0.049120948 0.13936585 1.5490391 0
-0.05818224 0.073542207 1.5490391 0
-0.062009774 0.045065761 1.5490391 0
-0.070097819 -0.011443198 1.5490391 0
-0.073496073 -0.039064005 1.5490391 0
-0.082507856 -0.096888468 1.5490391 0
-0.052933253 0.21677762 1.5490391 0
-0.059210256 0.1704817 1.5490391 0
-0.065417774 0.12310398 1.5490391 0
-0.069547303 0.095833614 1.5490391 0
-0.10440129 0.040281907 1.5490391 0
-0.10706688 0.02161184 1.5490391 0
-0.11512713 -0.043076053 1.5490391 0
-0.12182403 -0.081220284 1.5490391 0
-0.096192338 0.21364844 1.5490391 0
-0.10142536 0.18950687 1.5490391 0
-0.10231939 0.1662325 1.5490391 0
-0.1054058 0.13667226 1.5490391 0
-0.11338153 0.081058897 1.5490391 0
-0.11685508 0.052715957 1.5490391 0
-0.12506154 -0.0032261908 1.5490391 0
-0.12801112 -0.030885056 1.5490391 0
-0.13790211 -0.088023782 1.5490391 0
-0.10702853 0.23302643 1.5490391 0
-0.11699849 0.18277049 1.5490391 0
-0.11791076 0.14883564 1.5490391 0
-0.12838015 0.085106149 1.5490391 0
-0.1289075 0.064858511 1.5490391 0
-0.13944855 -0.0092374384 1.5490391 0
-0.1405578 -0.018459991 1.5490391 0
-0.15186794 -0.092937335 1.5490391 0
-0.12212783 0.22627765 1.5490391 0
-0.13060066 0.17261051 1.5490391 0
-0.1323536 0.14163873 1.5490391 0
-0.14185765 0.087925121 1.5490391 0
-0.14533097 0.059580833 1.5490391 0
-0.15343311 0.0035068393 1.5490391 0
-0.15734217 -0.02455245 1.5490391 0
-0.1637909 -0.07955271 1.5490391 0
-0.13685159 0.22789615 1.5490391 0
-0.14333099 0.1813356 1.5490391 0
-0.14788133 0.13214174 1.5490391 0
-0.15459485 0.096206561 1.5490391 0
-0.19898768 -0.037566513 1.5490391 0
-0.2059294 -0.066332877 1.5490391 0
-0.22187068 0.23054758 1.5490391 0
-0.23258826 0.20997563 1.5490391 0
-0.23196933 0.14623532 1.5490391 0
-0.23717457 0.10929538 1.5490391 0
-0.20710352 0.23850693 1.5490391 0
-0.21527067 0.17269315 1.5490391 0
-0.21838781 0.15453118 1.5490391 0
-0.22849575 0.069721594 1.5490391 0
-0.24115053 0.014112279 1.5490391 0
-0.24268989 -0.014229566 1.5490391 0
-0.25065732 -0.070565656 1.5490391 0
-0.19225118 0.24556622 1.5490391 0
-0.20129928 0.16981217 1.5490391 0
-0.20143673 0.14909552 1.5490391 0
-0.21492675 0.096882656 1.5490391 0
-0.21331829 0.066365078 1.5490391 0
-0.22315194 0.0016554594 1.5490391 0
-0.22422448 -0.0076047778 1.5490391 0
-0.23259902 -0.017635539 1.5490391 0
-0.22873643 -0.026417449 1.5490391 0
-0.23707238 -0.08255285 1.5490391 0
-0.17851952 0.23466869 1.5490391 0
-0.18810368 0.19245727 1.5490391 0
-0.19760096 0.095442571 1.5490391 0
-0.20051619 0.06708771 1.5490391 0
-0.21081397 0.011486322 1.5490391 0
-0.21546969 -0.026026443 1.5490391 0
-0.22222485 -0.081561938 1.5490391 0
0 0 0 1 0 0 0 1 0 0 0 1 0 0 0 0 0 96 1 0 0
