ply
format ascii 1.0
comment PCL generated
element vertex 342
property float x
property float y
property float z
element camera 1
property float view_px
property float view_py
property float view_pz
property float x_axisx
property float x_axisy
property float x_axisz
property float y_axisx
property float y_axisy
property float y_axisz
property float z_axisx
property float z_axisy
property float z_axisz
property float focal
property float scalex
property float scaley
property float centerx
property float centery
property int viewportx
property int viewporty
property float k1
property float k2
end_header
0.97938532 0.30594319 0.21205196
0.96645188 0.33187833 0.18167719
1.1289246 0.020220716 0.19729233
1.0284491 0.21337846 0.17666517
1.0322996 0.20639066 0.16672316
1.0360625 0.19954094 0.15756257
1.0910896 0.094027787 0.16179764
1.1115943 0.054680649 0.16414946
1.0367137 0.19866289 0.14802523
1.0884151 0.099507816 0.15249437
1.1157957 0.047009364 0.15452404
1.1943986 -0.10383107 0.16370732
0.96899557 0.32879889 0.13535808
1.117938 0.043274783 0.14502865
1.196897 -0.10824269 0.15408985
1.0114309 0.24782506 0.12841184
1.0329828 0.20653136 0.12924719
1.0911324 0.095040418 0.1334888
1.1186676 0.042288736 0.13440374
1.0919374 0.093906023 0.12295616
1.1159751 0.047842007 0.12409425
1.1946241 -0.10298854 0.13074866
1.1979688 -0.10857366 0.10957403
1.1948445 -0.10215851 0.098363191
0.96815687 0.33256078 0.079573117
1.0696802 0.13810349 0.081923105
1.0511822 0.17387849 0.072602838
1.1356957 0.012019997 0.074087717
1.154063 -0.023199411 0.075515352
1.0754958 0.12765492 0.064196751
1.1303804 0.022539448 0.065204389
0.96815658 0.33358043 0.053211782
1.047212 0.18220979 0.053709216
1.0762879 0.12654786 0.053614683
1.1276298 0.028194629 0.055139307
1.1606855 -0.035100855 0.055401124
0.96902132 0.332293 0.043686543
1.1580011 -0.02954598 0.044657614
1.1588784 -0.030803017 0.033724654
1.1533749 -0.019890938 0.024009967
1.1960526 -0.10160863 0.024293354
0.9667117 0.3381446 0.0066959364
1.0308317 0.21580373 -0.0040784413
1.1969609 -0.10168341 -0.018760033
0.96967578 0.33353779 -0.020930884
1.0880156 0.10709628 -0.024027657
1.1189167 0.048014566 -0.026058611
1.1939695 -0.09553273 -0.029714217
0.96741956 0.3382059 -0.029947281
1.033893 0.21101178 -0.031734269
1.0888005 0.10597199 -0.033823308
1.1197389 0.046843104 -0.036478568
1.1948892 -0.096880823 -0.040384728
1.0099725 0.25713012 -0.040074375
1.0346334 0.20996934 -0.04143218
0.96743703 0.33923489 -0.057423517
1.1950008 -0.095825292 -0.073219702
0.96813738 0.33827034 -0.067158081
0.96883518 0.33730739 -0.076808542
0.96814704 0.32787696 0.2012337
1.0314071 0.20658588 0.2058787
0.96645451 0.33188611 0.18134438
0.96532756 0.33437124 0.17287026
1.0284508 0.21337757 0.17660066
1.187869 -0.092553981 0.19536579
1.0322893 0.20639166 0.16720819
1.0360625 0.19954094 0.15756257
1.0910851 0.09402556 0.16207562
1.0367146 0.19866498 0.14792627
1.1943983 -0.10383161 0.16373706
1.0904523 0.095981218 0.14282897
1.1969193 -0.10825799 0.15338638
0.96960753 0.32799354 0.12588342
1.03299 0.20653071 0.1289133
1.1186627 0.042289868 0.13461806
1.0919328 0.09390372 0.12325183
1.1159751 0.047842007 0.12409425
1.1099187 0.05983229 0.11386705
0.97039455 0.32788929 0.089602262
0.96815014 0.33255535 0.080049902
1.0535327 0.16901444 0.082017727
1.0696721 0.13809918 0.082439817
1.1540705 -0.02318654 0.074807867
1.1967928 -0.10508075 0.077456117
1.1949193 -0.10109636 0.067168996
0.96815735 0.33358046 0.053176228
1.0762892 0.12654762 0.053549707
1.1276282 0.028194996 0.055204764
1.1606965 -0.035104029 0.05493864
1.1958394 -0.10244531 0.0565021
0.96902293 0.33229426 0.043580741
1.1970193 -0.10423352 0.044324879
0.96825975 0.33444783 0.025666451
1.138599 0.0083428463 0.025418237
1.1533803 -0.019894389 0.023826502
1.1960557 -0.10161059 0.024201164
0.96670568 0.3381398 0.0071293456
1.1949135 -0.098156363 -0.0085889325
1.1144863 0.05608039 -0.015288652
0.9696638 0.33353758 -0.020325782
1.1189249 0.048012741 -0.026410913
1.0338962 0.21101364 -0.031943928
1.119734 0.046841219 -0.036186002
1.0346358 0.20997424 -0.041679941
1.0895933 0.10484085 -0.043825239
1.1170431 0.05238517 -0.0463291
1.0914304 0.10169049 -0.053313792
1.1959257 -0.097170532 -0.08423268
1.1968572 -0.098519906 -0.095452875
0.9705525 0.32289851 0.21088667
0.97939241 0.30593991 0.21178198
0.96815103 0.32787701 0.20103306
1.0314003 0.20658657 0.20620479
0.96282595 0.33846235 0.19092984
1.0833412 0.10732918 0.20145372
0.96645343 0.33188301 0.18147671
1.1289274 0.020226138 0.19701773
0.96533608 0.33436754 0.1725391
1.0284508 0.21337757 0.17660066
1.1878301 -0.092527315 0.19660439
1.0077375 0.25347957 0.16504936
1.0322956 0.20639108 0.16691557
1.1967928 -0.10930178 0.1866547
1.0053356 0.25844082 0.15566719
1.0360664 0.19954343 0.15730377
1.1115913 0.054679289 0.1643343
1.0059659 0.25758988 0.14645436
1.115793 0.047004428 0.15477525
1.1944005 -0.10382781 0.16352996
1.1179261 0.04328189 0.14543073
1.196911 -0.10825232 0.15364689
1.0329934 0.20653036 0.12874869
1.1186453 0.042293843 0.1353734
1.0919299 0.093902409 0.12341821
1.1159807 0.047844414 0.1237565
1.1946136 -0.10299142 0.13133971
1.0996122 0.079598799 0.11297279
1.1979471 -0.10855878 0.11026379
0.96815497 0.33255923 0.079708032
1.0696747 0.13810055 0.082276717
1.1540663 -0.023193752 0.07520429
1.1967955 -0.10507648 0.077212147
1.075507 0.12764885 0.063796826
0.96817458 0.33358076 0.05230948
1.0762998 0.12654589 0.053069837
1.1276447 0.02819106 0.054497428
0.96903026 0.33230001 0.04306085
1.1580052 -0.029544612 0.044409215
1.0747187 0.13027976 0.034780119
1.158875 -0.030808598 0.034038663
1.1533532 -0.019877361 0.024731051
0.96895945 0.33347934 0.01606464
1.1969784 -0.10296061 0.013410067
0.9667117 0.3381446 0.0066959364
1.1979219 -0.10431717 0.0017817775
1.0323406 0.21325 -0.012747416
1.0938678 0.095520787 -0.014418124
1.1144948 0.056075498 -0.015582507
0.96966809 0.33353767 -0.020541625
1.0300276 0.21800768 -0.021273507
1.0880064 0.10709792 -0.023613758
1.1189197 0.048013896 -0.026187509
0.96742117 0.3382071 -0.030054398
1.0092554 0.25815117 -0.030979423
1.0338852 0.21100727 -0.031235654
1.1197389 0.046843104 -0.036478568
0.96811312 0.3372274 -0.038980875
1.0346382 0.20997912 -0.041924443
0.96814507 0.33827615 -0.067688979
0.96883225 0.33730048 -0.0764843
0.97053671 0.32290551 0.21148998
0.97939771 0.30593756 0.21158221
0.96815103 0.32787701 0.20103306
1.0313946 0.20658711 0.20647013
0.96532756 0.33437124 0.17287026
0.9660145 0.33340469 0.16385387
1.0322936 0.20639127 0.16701254
1.1968296 -0.10931441 0.18516695
1.0053251 0.25843331 0.15638098
1.0360634 0.19954154 0.15749748
1.0910771 0.094021551 0.16258116
1.1976399 -0.11044345 0.17423129
1.036714 0.19866359 0.14799221
1.1944032 -0.10382354 0.16329622
1.0077571 0.25449708 0.13776325
1.117946 0.043269955 0.14475565
1.1969328 -0.10826726 0.1529607
0.96959603 0.32799339 0.12645942
1.011428 0.24782521 0.12855063
1.0329914 0.20653059 0.12884729
1.0911353 0.095039859 0.13335584
1.1186683 0.042288583 0.13437337
1.1977521 -0.10939831 0.14163947
1.1159767 0.047842667 0.12400148
1.1946255 -0.10298809 0.13066167
0.96813059 0.33151764 0.10786802
0.97039318 0.32788923 0.089671671
0.96815407 0.33255848 0.079775877
1.0696802 0.13810349 0.081923105
1.1540692 -0.02318874 0.074928902
0.97041845 0.32891062 0.061992954
1.0754987 0.12765341 0.064095937
1.1303794 0.022540018 0.065236315
1.1949137 -0.1010925 0.067352191
0.96816576 0.33358061 0.052754942
1.0762849 0.12654832 0.053745344
1.1276366 0.028193008 0.054847639
1.1606945 -0.035103403 0.055030193
1.1958462 -0.1024476 0.056225389
0.9690299 0.33229965 0.043095049
1.077247 0.12509486 0.043695163
1.05207 0.17364895 0.034570109
1.1588745 -0.030809157 0.034070354
1.1533664 -0.019885689 0.024288723
0.96671021 0.33814341 0.0068033342
1.0308293 0.2157989 -0.0038393931
1.1949183 -0.098148964 -0.0090258541
1.1144863 0.05608039 -0.015288652
0.96966743 0.33353764 -0.020505829
1.1189226 0.048013236 -0.026315505
1.1939756 -0.095534757 -0.029963762
0.96741956 0.3382059 -0.029947281
1.0338962 0.21101364 -0.031943928
1.0346358 0.20997424 -0.041679941
1.0332066 0.21305874 -0.050695013
0.96742672 0.33923459 -0.056913245
0.96813834 0.33827111 -0.067229748
0.96883547 0.33730817 -0.076844208
0.97055411 0.32289773 0.21082091
0.97938257 0.30594438 0.2121543
0.96816278 0.32787713 0.20044482
1.0314132 0.2065853 0.20559047
0.96645367 0.33188376 0.18144354
1.1289231 0.020217665 0.19744675
1.0322893 0.20639166 0.16720819
1.1968172 -0.10931017 0.18566757
0.96077645 0.34381732 0.15390594
1.0360664 0.19954343 0.15730377
1.0910797 0.094022825 0.1624216
1.1115968 0.054681774 0.16399692
1.0884154 0.099508464 0.15246156
1.1157974 0.047013011 0.15433791
1.1943977 -0.10383271 0.16379666
1.0354525 0.20142493 0.13903441
1.0904356 0.09599065 0.14340667
1.1179442 0.04327102 0.14481595
1.1969084 -0.10825042 0.15373461
0.96959108 0.32799327 0.12670217
1.0329885 0.20653081 0.12897956
1.0911505 0.095036983 0.13267361
1.1186662 0.04228906 0.13446471
1.0919427 0.093908548 0.12263335
1.115973 0.047841121 0.12421869
0.9681313 0.33151999 0.10776255
1.1956538 -0.10456805 0.12060772
1.1948225 -0.10215116 0.099249095
0.96815014 0.33255535 0.080049902
1.0535301 0.16901295 0.082184881
1.0696747 0.13810055 0.082276717
1.1540705 -0.02318654 0.074807867
1.075519 0.12764241 0.063373439
1.1303868 0.022535488 0.064982578
1.1949408 -0.10111085 0.066483542
0.96815807 0.33358049 0.053140741
1.0472031 0.18221083 0.054121949
1.0762841 0.12654842 0.05377816
1.127643 0.028191404 0.054560587
1.1607038 -0.035106104 0.054636844
0.96902037 0.33229223 0.043757424
1.0772432 0.12509303 0.04392498
1.1579995 -0.029546503 0.044751663
1.1970023 -0.10423774 0.045280132
1.1533405 -0.019869447 0.025151582
0.96896505 0.33347943 0.015787574
0.96672332 0.33815366 0.0058929934
1.0308303 0.21580096 -0.0039422256
1.1144948 0.056075498 -0.015582507
0.96967518 0.33353779 -0.020895837
1.1189234 0.048013072 -0.026347362
0.96742326 0.33820871 -0.030196253
1.0338984 0.21101493 -0.032082401
1.119733 0.046840794 -0.036120355
1.1949016 -0.096877828 -0.041078724
1.0346354 0.20997357 -0.041644752
1.0895948 0.10484349 -0.043965954
1.1170354 0.052372307 -0.04561796
1.0914345 0.10168835 -0.053452969
1.1119752 0.062420193 -0.054932274
0.96743476 0.3392348 -0.057315338
1.1968715 -0.098499723 -0.096684843
1.0314065 0.20658599 0.20591106
0.96645266 0.33188066 0.18157667
1.1878504 -0.092541195 0.19595958
0.96601301 0.33340463 0.16392359
1.0322936 0.20639127 0.16701254
1.1967964 -0.10930305 0.186506
0.96077788 0.34381852 0.15380292
1.0360645 0.19954218 0.15743268
1.0910771 0.094021551 0.16258116
1.1115973 0.054681998 0.16396658
1.1157969 0.047011804 0.15439974
1.1944009 -0.10382728 0.16350056
1.1968943 -0.10824074 0.1541798
0.96960342 0.32799345 0.12608455
1.0114272 0.24782525 0.1285855
1.0329843 0.20653123 0.12917989
1.1186504 0.042292666 0.13514972
1.0919296 0.093902156 0.12345169
1.1159776 0.047843106 0.1239399
1.0996119 0.079598166 0.11300468
1.1099193 0.05983353 0.113803
1.0696695 0.13809782 0.082604446
1.1540636 -0.023198269 0.0754527
1.1560559 -0.026631044 0.065581039
1.1949089 -0.10108923 0.067506276
0.96815735 0.33358046 0.053176228
1.0762724 0.12655036 0.054311544
1.1276259 0.028195547 0.055303395
1.1607009 -0.035105281 0.054756943
0.96902192 0.33229342 0.043651208
1.1970005 -0.10423814 0.04537233
1.1979365 -0.10559449 0.034100927
1.1533664 -0.019885689 0.024288723
1.1960498 -0.1016067 0.024386011
0.9667179 0.33814937 0.0062725637
1.0308287 0.21579751 -0.0037705121
0.96889889 0.33466125 -0.011509865
1.0938493 0.095530927 -0.013770112
0.96966666 0.33353764 -0.020469956
1.1189256 0.048012577 -0.026442604
0.96741176 0.33819988 -0.029402226
1.0338941 0.21101238 -0.031804416
1.1197389 0.046843104 -0.036478568
0.96811116 0.33722258 -0.038757388
1.0332178 0.21305346 -0.05110734
1.0914422 0.10168411 -0.053728245
1.1119703 0.062422995 -0.054761086
1.1981122 -0.1022017 -0.062367354
0.96743625 0.33923486 -0.057387523
0.96813989 0.33827227 -0.067336738
0.96883225 0.33730048 -0.0764843
1.1968542 -0.098524109 -0.0951965
0 0 0 1 0 0 0 1 0 0 0 1 0 0 0 0 0 342 1 0 0
