ply
format ascii 1.0
comment PCL generated
element vertex 188
property float x
property float y
property float z
element camera 1
property float view_px
property float view_py
property float view_pz
property float x_axisx
property float x_axisy
property float x_axisz
property float y_axisx
property float y_axisy
property float y_axisz
property float z_axisx
property float z_axisy
property float z_axisz
property float focal
property float scalex
property float scaley
property float centerx
property float centery
property int viewportx
property int viewporty
property float k1
property float k2
end_header
1.0284491 0.21337846 0.17666517
1.0322996 0.20639066 0.16672316
1.0360625 0.19954094 0.15756257
1.0910896 0.094027787 0.16179764
1.1115943 0.054680649 0.16414946
1.0367137 0.19866289 0.14802523
1.0884151 0.099507816 0.15249437
1.1157957 0.047009364 0.15452404
1.117938 0.043274783 0.14502865
1.0114309 0.24782506 0.12841184
1.0329828 0.20653136 0.12924719
1.0911324 0.095040418 0.1334888
1.1186676 0.042288736 0.13440374
1.0919374 0.093906023 0.12295616
1.1159751 0.047842007 0.12409425
1.0696802 0.13810349 0.081923105
1.0511822 0.17387849 0.072602838
1.1356957 0.012019997 0.074087717
1.154063 -0.023199411 0.075515352
1.0754958 0.12765492 0.064196751
1.1303804 0.022539448 0.065204389
1.047212 0.18220979 0.053709216
1.0762879 0.12654786 0.053614683
1.1276298 0.028194629 0.055139307
1.1606855 -0.035100855 0.055401124
1.1580011 -0.02954598 0.044657614
1.1588784 -0.030803017 0.033724654
1.1533749 -0.019890938 0.024009967
1.0308317 0.21580373 -0.0040784413
1.0880156 0.10709628 -0.024027657
1.1189167 0.048014566 -0.026058611
1.033893 0.21101178 -0.031734269
1.0888005 0.10597199 -0.033823308
1.1197389 0.046843104 -0.036478568
1.0099725 0.25713012 -0.040074375
1.0346334 0.20996934 -0.04143218
1.0284508 0.21337757 0.17660066
1.0322893 0.20639166 0.16720819
1.0360625 0.19954094 0.15756257
1.0910851 0.09402556 0.16207562
1.0367146 0.19866498 0.14792627
1.0904523 0.095981218 0.14282897
1.03299 0.20653071 0.1289133
1.1186627 0.042289868 0.13461806
1.0919328 0.09390372 0.12325183
1.1159751 0.047842007 0.12409425
1.1099187 0.05983229 0.11386705
1.0535327 0.16901444 0.082017727
1.0696721 0.13809918 0.082439817
1.1540705 -0.02318654 0.074807867
1.0762892 0.12654762 0.053549707
1.1276282 0.028194996 0.055204764
1.1606965 -0.035104029 0.05493864
1.138599 0.0083428463 0.025418237
1.1533803 -0.019894389 0.023826502
1.1144863 0.05608039 -0.015288652
1.1189249 0.048012741 -0.026410913
1.0338962 0.21101364 -0.031943928
1.119734 0.046841219 -0.036186002
1.0346358 0.20997424 -0.041679941
1.0895933 0.10484085 -0.043825239
1.1170431 0.05238517 -0.0463291
1.0914304 0.10169049 -0.053313792
1.0284508 0.21337757 0.17660066
1.0077375 0.25347957 0.16504936
1.0322956 0.20639108 0.16691557
1.0053356 0.25844082 0.15566719
1.0360664 0.19954343 0.15730377
1.1115913 0.054679289 0.1643343
1.0059659 0.25758988 0.14645436
1.115793 0.047004428 0.15477525
1.1179261 0.04328189 0.14543073
1.0329934 0.20653036 0.12874869
1.1186453 0.042293843 0.1353734
1.0919299 0.093902409 0.12341821
1.1159807 0.047844414 0.1237565
1.0996122 0.079598799 0.11297279
1.0696747 0.13810055 0.082276717
1.1540663 -0.023193752 0.07520429
1.075507 0.12764885 0.063796826
1.0762998 0.12654589 0.053069837
1.1276447 0.02819106 0.054497428
1.1580052 -0.029544612 0.044409215
1.0747187 0.13027976 0.034780119
1.158875 -0.030808598 0.034038663
1.1533532 -0.019877361 0.024731051
1.0323406 0.21325 -0.012747416
1.0938678 0.095520787 -0.014418124
1.1144948 0.056075498 -0.015582507
1.0300276 0.21800768 -0.021273507
1.0880064 0.10709792 -0.023613758
1.1189197 0.048013896 -0.026187509
1.0092554 0.25815117 -0.030979423
1.0338852 0.21100727 -0.031235654
1.1197389 0.046843104 -0.036478568
1.0346382 0.20997912 -0.041924443
1.0322936 0.20639127 0.16701254
1.0053251 0.25843331 0.15638098
1.0360634 0.19954154 0.15749748
1.0910771 0.094021551 0.16258116
1.036714 0.19866359 0.14799221
1.0077571 0.25449708 0.13776325
1.117946 0.043269955 0.14475565
1.011428 0.24782521 0.12855063
1.0329914 0.20653059 0.12884729
1.0911353 0.095039859 0.13335584
1.1186683 0.042288583 0.13437337
1.1159767 0.047842667 0.12400148
1.0696802 0.13810349 0.081923105
1.1540692 -0.02318874 0.074928902
1.0754987 0.12765341 0.064095937
1.1303794 0.022540018 0.065236315
1.0762849 0.12654832 0.053745344
1.1276366 0.028193008 0.054847639
1.1606945 -0.035103403 0.055030193
1.077247 0.12509486 0.043695163
1.05207 0.17364895 0.034570109
1.1588745 -0.030809157 0.034070354
1.1533664 -0.019885689 0.024288723
1.0308293 0.2157989 -0.0038393931
1.1144863 0.05608039 -0.015288652
1.1189226 0.048013236 -0.026315505
1.0338962 0.21101364 -0.031943928
1.0346358 0.20997424 -0.041679941
1.0332066 0.21305874 -0.050695013
1.0322893 0.20639166 0.16720819
1.0360664 0.19954343 0.15730377
1.0910797 0.094022825 0.1624216
1.1115968 0.054681774 0.16399692
1.0884154 0.099508464 0.15246156
1.1157974 0.047013011 0.15433791
1.0354525 0.20142493 0.13903441
1.0904356 0.09599065 0.14340667
1.1179442 0.04327102 0.14481595
1.0329885 0.20653081 0.12897956
1.0911505 0.095036983 0.13267361
1.1186662 0.04228906 0.13446471
1.0919427 0.093908548 0.12263335
1.115973 0.047841121 0.12421869
1.0535301 0.16901295 0.082184881
1.0696747 0.13810055 0.082276717
1.1540705 -0.02318654 0.074807867
1.075519 0.12764241 0.063373439
1.1303868 0.022535488 0.064982578
1.0472031 0.18221083 0.054121949
1.0762841 0.12654842 0.05377816
1.127643 0.028191404 0.054560587
1.1607038 -0.035106104 0.054636844
1.0772432 0.12509303 0.04392498
1.1579995 -0.029546503 0.044751663
1.1533405 -0.019869447 0.025151582
1.0308303 0.21580096 -0.0039422256
1.1144948 0.056075498 -0.015582507
1.1189234 0.048013072 -0.026347362
1.0338984 0.21101493 -0.032082401
1.119733 0.046840794 -0.036120355
1.0346354 0.20997357 -0.041644752
1.0895948 0.10484349 -0.043965954
1.1170354 0.052372307 -0.04561796
1.0914345 0.10168835 -0.053452969
1.1119752 0.062420193 -0.054932274
1.0322936 0.20639127 0.16701254
1.0360645 0.19954218 0.15743268
1.0910771 0.094021551 0.16258116
1.1115973 0.054681998 0.16396658
1.1157969 0.047011804 0.15439974
1.0114272 0.24782525 0.1285855
1.0329843 0.20653123 0.12917989
1.1186504 0.042292666 0.13514972
1.0919296 0.093902156 0.12345169
1.1159776 0.047843106 0.1239399
1.0996119 0.079598166 0.11300468
1.1099193 0.05983353 0.113803
1.0696695 0.13809782 0.082604446
1.1540636 -0.023198269 0.0754527
1.1560559 -0.026631044 0.065581039
1.0762724 0.12655036 0.054311544
1.1276259 0.028195547 0.055303395
1.1607009 -0.035105281 0.054756943
1.1533664 -0.019885689 0.024288723
1.0308287 0.21579751 -0.0037705121
1.0938493 0.095530927 -0.013770112
1.1189256 0.048012577 -0.026442604
1.0338941 0.21101238 -0.031804416
1.1197389 0.046843104 -0.036478568
1.0332178 0.21305346 -0.05110734
1.0914422 0.10168411 -0.053728245
1.1119703 0.062422995 -0.054761086
0 0 0 1 0 0 0 1 0 0 0 1 0 0 0 0 0 188 1 0 0
