ply
format ascii 1.0
comment PCL generated
element vertex 347
property float x
property float y
property float z
element camera 1
property float view_px
property float view_py
property float view_pz
property float x_axisx
property float x_axisy
property float x_axisz
property float y_axisx
property float y_axisy
property float y_axisz
property float z_axisx
property float z_axisy
property float z_axisz
property float focal
property float scalex
property float scaley
property float centerx
property float centery
property int viewportx
property int viewporty
property float k1
property float k2
end_header
0.14722031 0.11155291 0
0.15461244 0.10093856 0
0.13228154 0.10756889 0
0.12170205 0.10271632 0
0.15658541 0.084938914 0
0.059066024 0.11294692 0
0.161486 0.075396709 0
0.071692228 0.10134501 0
0.041344114 0.10981142 0
0.10868932 0.08258827 0
0.07864143 0.091208979 0
0.07131584 0.09403865 0
0.11360797 0.072894618 0
0.022976821 0.098707609 0
-0.023066632 0.11208526 0
-0.030801289 0.11435069 0
0.14797662 0.055771433 0
0.073072016 0.076991074 0
0.020010857 0.092185348 0
0.017444044 0.084639527 0
-0.059832361 0.10652773 0
0.017306345 0.076582305 0
-0.12335853 0.11632396 0
0.022200387 0.067092761 0
-0.016202597 0.077574722 0
-0.070624255 0.092949331 0
-0.11002667 0.10464799 0
-0.14231241 0.11317331 0
0.034695022 0.055547338 0
-0.018925499 0.070258185 0
-0.1048575 0.09487763 0
-0.14499408 0.10602657 0
0.15183552 0.014626523 0
0.14429748 0.016341761 0
0.12954786 0.021126779 0
-0.068396084 0.076356716 0
0.15954657 0.0044296691 0
0.12229881 0.014877062 0
-0.060431607 0.065396421 0
-0.15584198 0.092176974 0
-0.047968272 0.054826334 0
-0.10307892 0.069469415 0
-0.15921389 0.085203998 0
0.15375522 -0.009633664 0
0.10897751 0.002627867 0
0.064039059 0.015394538 0
0.041354556 0.021558614 0
-0.1054895 0.062414967 0
0.1507421 -0.01713662 0
0.068662584 0.0061971173 0
0.030914631 0.016691525 0
-0.12454695 0.058838747 0
-0.14862868 0.06551706 0
0.068580911 -0.002359417 0
-0.14057972 0.054630868 0
0.14781322 -0.031742305 0
0.11063421 -0.021142188 0
0.020294596 0.0036928412 0
-0.017978247 0.013890225 0
0.1304384 -0.034822818 0
0.12299376 -0.032734353 0
0.063046813 -0.016450182 0
0.017745733 -0.0037913322 0
-0.012779974 0.0045481655 0
0.060351767 -0.023649672 0
-0.015407356 -0.0023793762 0
-0.11687219 0.02456921 0
-0.12484866 0.026636202 0
0.022383135 -0.021482848 0
-0.015791541 -0.011299288 0
-0.069842108 0.0034790873 0
-0.14119835 0.021913288 0
0.03467666 -0.032555345 0
-0.018524377 -0.017854452 0
-0.072742842 -0.0036172234 0
0.12952702 -0.066725247 0
-0.1066677 -0.0026788288 0
-0.15467393 0.0094445888 0
0.15650806 -0.082285844 0
0.11943128 -0.071680903 0
-0.15733671 0.0023707745 0
0.15607178 -0.090400666 0
-0.047249749 -0.03453752 0
-0.054967862 -0.032435909 0
-0.15778494 -0.0061756512 0
0.10891044 -0.084758617 0
0.041543338 -0.066217437 0
-0.11265638 -0.026070695 0
0.15043367 -0.10479473 0
-0.12352198 -0.031284574 0
-0.14747705 -0.025238372 0
0.066161968 -0.088855751 0
-0.024666427 -0.064567059 0
-0.032304496 -0.062431481 0
0.11058183 -0.10909691 0
0.020620162 -0.084701553 0
-0.024822317 -0.071939275 0
0.12285622 -0.12081067 0
0.018119421 -0.092039689 0
-0.058206044 -0.071571715 0
-0.11612029 -0.065013744 0
-0.12399996 -0.062916696 0
0.019963844 -0.10795591 0
-0.1030549 -0.076102972 0
-0.14269367 -0.066500396 0
0.057690889 -0.125917 0
0.050276861 -0.12363341 0
0.027583396 -0.11801037 0
-0.018017765 -0.1063825 0
-0.15063612 -0.072963916 0
-0.066751517 -0.10156628 0
-0.10588162 -0.092293836 0
-0.03117569 -0.11846202 0
-0.061872508 -0.11044323 0
-0.10871498 -0.099159941 0
-0.049202662 -0.12167668 0
-0.15912099 -0.095130749 0
-0.15943724 -0.10397337 0
-0.13311091 -0.12569079 0
0.14720704 0.11149722 0
0.059110861 0.11311083 0
0.10924635 0.090412445 0
0.071727432 0.10148485 0
0.041476037 0.11033822 0
0.078702107 0.09139812 0
0.15099053 0.062435936 0
0.11360797 0.072894618 0
0.022936517 0.098572321 0
-0.023106836 0.11194964 0
-0.030849436 0.11418781 0
0.14802369 0.05594046 0
0.14057414 0.058068052 0
0.1330868 0.060085755 0
0.11819252 0.064495169 0
0.073072016 0.076991074 0
0.017409183 0.084500976 0
-0.059728924 0.10694366 0
0.062763385 0.063424043 0
-0.013331854 0.085372321 0
-0.1233914 0.11621726 0
0.022184232 0.067037374 0
-0.016072854 0.078012429 0
-0.070584163 0.093084335 0
-0.14238301 0.11293362 0
0.03471826 0.05563112 0
-0.018805228 0.070698366 0
0.15180698 0.014512807 0
0.12958491 0.021270297 0
-0.068313681 0.076688319 0
-0.099834941 0.08552406 0
0.15948187 0.0042309836 0
-0.09971457 0.076493025 0
-0.15594344 0.091854706 0
-0.047943488 0.054909661 0
-0.10298321 0.069793254 0
-0.15920541 0.085231148 0
0.10897751 0.002627867 0
0.063961521 0.015115214 0
0.041316539 0.021419857 0
-0.10554199 0.062220775 0
-0.11355005 0.064186879 0
0.068662584 0.0061971173 0
0.030886291 0.016578227 0
-0.12441647 0.059363686 0
-0.14849666 0.066045523 0
0.068554178 -0.0024426002 0
-0.14052847 0.054793082 0
0.14786449 -0.031568725 0
0.020302827 0.0037213331 0
0.13038166 -0.035022955 0
0.12289163 -0.033105489 0
0.063023485 -0.016533691 0
0.017753618 -0.0037635937 0
0.060373817 -0.023565304 0
0.022718772 -0.012767278 0
-0.015407356 -0.0023793762 0
-0.11683628 0.024710862 0
-0.12479991 0.02683329 0
0.022473425 -0.021201879 0
-0.015657984 -0.01088118 0
-0.069903873 0.0032852348 0
-0.10924035 0.013660102 0
-0.14107658 0.022296133 0
0.042321362 -0.0343084 0
0.034744505 -0.032328106 0
-0.018515896 -0.017826434 0
-0.072734937 -0.0035898676 0
0.14425704 -0.071346909 0
-0.028844189 -0.023618018 0
-0.10675971 -0.0030163357 0
-0.15465926 0.0094997436 0
0.15650806 -0.082285844 0
0.14909138 -0.080199309 0
-0.062428903 -0.022549901 0
-0.15742844 0.0020067161 0
-0.047241073 -0.034510519 0
-0.054931752 -0.032322519 0
-0.10180939 -0.020058613 0
-0.1097833 -0.018259767 0
0.10888509 -0.084846616 0
0.041508976 -0.066333458 0
-0.11256561 -0.025763635 0
-0.12342279 -0.030920448 0
0.14799379 -0.11181309 0
0.11084801 -0.10154377 0
0.066036381 -0.089351602 0
-0.024651546 -0.064508222 0
-0.032326657 -0.062518984 0
0.11061773 -0.10898189 0
0.065910175 -0.096458212 0
0.020674253 -0.08453241 0
0.1229764 -0.12040255 0
0.018248556 -0.091603935 0
-0.019821826 -0.081754476 0
-0.05821446 -0.071600065 0
0.067858361 -0.11253323 0
0.060250055 -0.11093935 0
-0.11609714 -0.064929053 0
-0.12399996 -0.062916696 0
-0.13193618 -0.060932495 0
0.019993577 -0.1078378 0
-0.10306881 -0.076159731 0
0.027583396 -0.11801037 0
-0.15072459 -0.073243149 0
-0.15352757 -0.080853991 0
-0.062022928 -0.11099262 0
-0.04926984 -0.12194269 0
-0.11173537 -0.11515066 0
-0.15938421 -0.10380631 0
-0.12230213 -0.11965325 0
-0.13311091 -0.12569079 0
0.14725545 0.11169282 0
0.15463941 0.10101872 0
0.13225529 0.10748872 0
0.1515235 0.093960002 0
0.12167857 0.10263512 0
0.15645774 0.084473073 0
0.059088059 0.11302854 0
0.10922471 0.09032914 0
0.071650185 0.10117856 0
0.041364864 0.10989361 0
0.16085321 0.067355692 0
0.10862868 0.082400225 0
0.078667253 0.091289751 0
0.11346893 0.07242915 0
0.022984888 0.098734803 0
-0.023082744 0.11203088 0
-0.03084149 0.11421487 0
0.073110156 0.077129029 0
0.019988336 0.092103571 0
-0.018394183 0.10304981 0
0.017444044 0.084639527 0
-0.01327177 0.09319222 0
-0.059784207 0.10672053 0
0.062771603 0.063451216 0
-0.1233839 0.11624409 0
0.052559096 0.058504965 0
0.022233507 0.067203723 0
-0.070544176 0.09322045 0
-0.13429429 0.11070037 0
0.034672279 0.055463724 0
-0.14514799 0.10545779 0
0.15191625 0.014942269 0
0.14448446 0.017080164 0
-0.099869356 0.085385121 0
0.15947387 0.0042022769 0
0.12234478 0.015018804 0
-0.029128462 0.057482373 0
-0.060258269 0.065938994 0
-0.15599495 0.091696143 0
0.15633698 -0.0021246572 0
-0.047935266 0.054937482 0
-0.1592695 0.085015386 0
0.10894682 0.0025156094 0
0.063954443 0.015087209 0
0.041486654 0.02203797 0
-0.10555709 0.062165532 0
0.15067732 -0.017390609 0
0.068655171 0.0061690104 0
0.030986588 0.016977087 0
0.11342286 -0.015174113 0
-0.14057204 0.054657709 0
0.14775345 -0.031942952 0
0.11059131 -0.021286162 0
0.02034492 0.0038626052 0
-0.017970119 0.013918205 0
-0.025649687 0.01605273 0
-0.048736818 0.022695659 0
0.13035041 -0.035137154 0
0.12293082 -0.032963984 0
0.06321083 -0.015852617 0
0.017807765 -0.0035653962 0
-0.05900174 0.017496515 0
-0.061737917 0.010173934 0
-0.1167941 0.024881413 0
-0.12478509 0.026890432 0
0.022491409 -0.021144385 0
-0.069815278 0.0035629454 0
-0.10910872 0.014074609 0
-0.14119835 0.021913288 0
0.042304453 -0.034366157 0
0.03476141 -0.032270417 0
-0.072734937 -0.0035898676 0
0.12945537 -0.066984318 0
-0.067542054 -0.013378829 0
-0.15461402 0.0096676098 0
0.1194094 -0.071767859 0
-0.062400922 -0.02243788 0
-0.047186736 -0.034339961 0
-0.054949969 -0.032379776 0
-0.15777603 -0.0061476571 0
0.15340285 -0.097468354 0
0.10878208 -0.085189536 0
0.056668345 -0.070048787 0
-0.11251595 -0.025594138 0
0.06114978 -0.0796149 0
-0.12341499 -0.030891638 0
0.14806169 -0.11154579 0
-0.024659002 -0.064537659 0
-0.032326657 -0.062518984 0
0.14042194 -0.11696488 0
0.1106272 -0.1089537 0
0.020737905 -0.08433155 0
0.12295939 -0.12046157 0
0.018240221 -0.091633558 0
-0.019949218 -0.082185611 0
-0.058401089 -0.072231233 0
0.067737661 -0.11297111 0
0.06030589 -0.11073649 0
-0.015310082 -0.090832248 0
-0.11612029 -0.065013744 0
-0.12404592 -0.063085794 0
0.020008538 -0.1077797 0
-0.1029957 -0.075868167 0
-0.14266491 -0.06638512 0
0.042730104 -0.12173735 0
0.027648173 -0.1178082 0
-0.017899662 -0.10601272 0
-0.10307909 -0.084701926 0
-0.15068106 -0.073104672 0
-0.031223388 -0.11863625 0
-0.061856385 -0.11038431 0
-0.04924731 -0.12185322 0
-0.11169945 -0.11503705 0
-0.1593222 -0.10361051 0
-0.12239704 -0.11997424 0
-0.14619701 -0.11435127 0
0 0 0 1 0 0 0 1 0 0 0 1 0 0 0 0 0 347 1 0 0
